# xmcd
#
# Track frame offsets:
#	150
#	19446
#	38080
#	50411
#	69115
#	79699
#	95763
#	111113
#	125378
#	137034
#
# Disc length: 2008 seconds
#
# Revision: 0
# Processed by: cddbd v1.5.1PL0 Copyright (c) Steve Scherf et al.
# Submitted via: audiograbber 1.83.01
#
DISCID=8107d60a
DTITLE=Don Williams - Especially For You
DYEAR=1981
DGENRE=Country
TTITLE0=Fairweather Friends
TTITLE1=I Don't Want To Love You
TTITLE2=Years From Now
TTITLE3=Lord, I Hope This Day Is Good
TTITLE4=Especially You
TTITLE5=If I Needed You
TTITLE6=Now And Then
TTITLE7=Smooth Talking Baby
TTITLE8=I've Got You To Thank For That
TTITLE9=Miracles
EXTD=
EXTT0=
EXTT1=
EXTT2=
EXTT3=
EXTT4=
EXTT5=
EXTT6=
EXTT7=
EXTT8=
EXTT9=
PLAYORDER=
